<svg xmlns="http://www.w3.org/2000/svg" viewBox="0 0 512 512">
  <defs>
    <linearGradient id="gradient" x1="0%" y1="0%" x2="100%" y2="100%">
      <stop offset="0%" style="stop-color:#D00000" />
      <stop offset="100%" style="stop-color:#800000" />
    </linearGradient>
  </defs>
  <rect width="512" height="512" fill="#1F2937" rx="64" />
  <g transform="translate(96, 96) scale(0.625)">
    <path d="M128 80v352c0 26.5 21.5 48 48 48h224c26.5 0 48-21.5 48-48V80c0-26.5-21.5-48-48-48H176c-26.5 0-48 21.5-48 48z" fill="url(#gradient)"/>
    <path d="M176 80h224v352H176V80z" fill="#2D3748"/>
    <path d="M176 112h224v32H176v-32zM176 176h144v32H176v-32zM176 240h176v32H176v-32z" fill="#4A5568"/>
    <circle cx="320" cy="368" r="48" fill="#D00000"/>
    <path d="M320 336v64M288 368h64" stroke="white" stroke-width="8"/>
  </g>
</svg>